<svg width="18" height="18" viewBox="0 0 18 18" fill="none" xmlns="http://www.w3.org/2000/svg">
<path d="M9.00033 17.3334C4.39783 17.3334 0.666992 13.6026 0.666992 9.00008C0.666992 4.39758 4.39783 0.666748 9.00033 0.666748C13.6028 0.666748 17.3337 4.39758 17.3337 9.00008C17.3337 13.6026 13.6028 17.3334 9.00033 17.3334ZM9.00033 15.6667C10.7684 15.6667 12.4641 14.9644 13.7144 13.7141C14.9646 12.4639 15.667 10.7682 15.667 9.00008C15.667 7.23197 14.9646 5.53628 13.7144 4.28604C12.4641 3.03579 10.7684 2.33341 9.00033 2.33341C7.23222 2.33341 5.53652 3.03579 4.28628 4.28604C3.03604 5.53628 2.33366 7.23197 2.33366 9.00008C2.33366 10.7682 3.03604 12.4639 4.28628 13.7141C5.53652 14.9644 7.23222 15.6667 9.00033 15.6667ZM9.00033 11.5001C8.33728 11.5001 7.7014 11.2367 7.23256 10.7678C6.76372 10.299 6.50033 9.66312 6.50033 9.00008C6.50033 8.33704 6.76372 7.70115 7.23256 7.23231C7.7014 6.76347 8.33728 6.50008 9.00033 6.50008C9.66337 6.50008 10.2993 6.76347 10.7681 7.23231C11.2369 7.70115 11.5003 8.33704 11.5003 9.00008C11.5003 9.66312 11.2369 10.299 10.7681 10.7678C10.2993 11.2367 9.66337 11.5001 9.00033 11.5001Z" fill="#FAAD14"/>
</svg>
