<svg width="20" height="18" viewBox="0 0 20 18" fill="none" xmlns="http://www.w3.org/2000/svg">
<path d="M17.5002 15.6665H19.1668V17.3332H0.833496V15.6665H2.50016V1.49984C2.50016 1.27882 2.58796 1.06686 2.74424 0.910582C2.90052 0.754301 3.11248 0.666504 3.3335 0.666504H16.6668C16.8878 0.666504 17.0998 0.754301 17.2561 0.910582C17.4124 1.06686 17.5002 1.27882 17.5002 1.49984V15.6665ZM15.8335 15.6665V2.33317H4.16683V15.6665H15.8335ZM6.66683 8.1665H9.16683V9.83317H6.66683V8.1665ZM6.66683 4.83317H9.16683V6.49984H6.66683V4.83317ZM6.66683 11.4998H9.16683V13.1665H6.66683V11.4998ZM10.8335 11.4998H13.3335V13.1665H10.8335V11.4998ZM10.8335 8.1665H13.3335V9.83317H10.8335V8.1665ZM10.8335 4.83317H13.3335V6.49984H10.8335V4.83317Z" fill="#BBC3CD"/>
</svg>
