<svg width="18" height="17" viewBox="0 0 18 17" fill="none" xmlns="http://www.w3.org/2000/svg">
<path d="M3.80234 12.1667H15.6665V2.16667H2.33317V13.3208L3.80234 12.1667ZM4.379 13.8333L0.666504 16.75V1.33333C0.666504 1.11232 0.754301 0.900358 0.910582 0.744078C1.06686 0.587797 1.27882 0.5 1.49984 0.5H16.4998C16.7208 0.5 16.9328 0.587797 17.0891 0.744078C17.2454 0.900358 17.3332 1.11232 17.3332 1.33333V13C17.3332 13.221 17.2454 13.433 17.0891 13.5893C16.9328 13.7455 16.7208 13.8333 16.4998 13.8333H4.379ZM8.1665 9.66667H9.83317V11.3333H8.1665V9.66667ZM6.139 5.34417C6.24727 4.80233 6.50719 4.30237 6.8885 3.90248C7.26981 3.50259 7.75685 3.2192 8.29293 3.0853C8.82901 2.95139 9.39209 2.97248 9.91666 3.1461C10.4412 3.31971 10.9057 3.63873 11.256 4.06602C11.6064 4.4933 11.8282 5.01129 11.8956 5.55971C11.9631 6.10813 11.8734 6.66443 11.637 7.16387C11.4007 7.66332 11.0273 8.08537 10.5605 8.38092C10.0936 8.67646 9.55239 8.83335 8.99984 8.83333H8.1665V7.16667H8.99984C9.23657 7.16665 9.46843 7.09941 9.66844 6.97277C9.86845 6.84614 10.0284 6.6653 10.1296 6.45132C10.2309 6.23734 10.2693 5.999 10.2404 5.76404C10.2115 5.52908 10.1165 5.30715 9.96636 5.12409C9.81626 4.94103 9.61726 4.80436 9.39252 4.72997C9.16778 4.65559 8.92653 4.64656 8.69686 4.70392C8.46718 4.76129 8.25852 4.88269 8.09514 5.05401C7.93177 5.22533 7.8204 5.43953 7.774 5.67167L6.139 5.34417Z" fill="#BBC3CD"/>
</svg>
